# xmcd
#
# Track frame offsets:
# 150
# 14568
# 28783
# 42733
# 57100
# 68455
# 77727
# 90007
# 98810
# 109898
#
# Disc length: 1630 seconds
#
#
# Revision: 0
# Processed by: cddbd v1.5.2PL0 Copyright (c) Steve Scherf et al.
# Submitted via: FreeRIP 2.945 
#
DISCID=75065c0a
DTITLE=ernest tubb - ernest tubbs fellowship
DYEAR=1900
DGENRE=Country
TTITLE0=its been so long darling w-conway twitty
TTITLE1=lts say goodbye like we say hello w-johnny paycheck,grady martin
TTITLE2=seamans blues w-merle haggard
TTITLE3=when the world has turned you down w-vera gosdin,waylon jennings
TTITLE4=answer the phone w-loretta lynn,billy grammer
TTITLE5=jealous loving heart w-johnny cash,ernest tubb jr
TTITLE6=yesterdays winner is a loser today w-gene watson
TTITLE7=that wild and wicked look in your eyes w-razzy bailey
TTITLE8=I will step aside w-jack greene,jeannie seely
TTITLE9=journeys end w-marty robbins,the wilburn brothers
EXTD=
EXTT0=
EXTT1=
EXTT2=
EXTT3=
EXTT4=
EXTT5=
EXTT6=
EXTT7=
EXTT8=
EXTT9=
PLAYORDER=
